<?xml version="1.0" encoding="UTF-8"?>
<svg width="269px" height="68px" viewBox="0 0 269 68" version="1.1" xmlns="http://www.w3.org/2000/svg" xmlns:xlink="http://www.w3.org/1999/xlink">
    <title>Slice 1</title>
    <defs>
        <polygon id="path-1" points="0 87 280 87 280 0 0 0"></polygon>
    </defs>
    <g id="Page-1" stroke="none" stroke-width="1" fill="none" fill-rule="evenodd">
        <g id="HOT_logo_with_text_RGB_Transparent_BG_White_Circle" transform="translate(-4, -9)">
            <g id="g4255" transform="translate(140, 43.5) scale(-1, 1) rotate(-180) translate(-140, -43.5)">
                <g id="g4257" transform="translate(127.8229, 62.5037)" fill="#D73F3F" fill-rule="nonzero">
                    <polygon id="path4259" points="0 0 0 15.0974756 1.96953342 15.0974756 1.96953342 8.90120521 9.70784363 8.90120521 9.70784363 15.0974756 11.677377 15.0974756 11.677377 0 9.70784363 0 9.70784363 7.11728013 1.96953342 7.11728013 1.96953342 0"></polygon>
                </g>
                <g id="g4263-Clipped">
                    <mask id="mask-2" fill="white">
                        <use xlink:href="#path-1"></use>
                    </mask>
                    <g id="path4267"></g>
                    <g id="g4263" mask="url(#mask-2)">
                        <g transform="translate(4.5203, 10.4889)">
                            <g id="g4269" stroke-width="1" fill="none" fill-rule="evenodd" transform="translate(137.9926, 51.7697)">
                                <path d="M7.11263556,0.245130293 L7.11263556,1.85548046 C6.27157629,0.616368078 5.13180328,0 3.68766709,0 C3.05493064,0 2.45891551,0.125399023 1.9095082,0.371237785 C1.35515763,0.616368078 0.943455233,0.927385993 0.68075662,1.305 C0.411702396,1.67623779 0.221034048,2.13674267 0.11369483,2.67588762 C0.042370744,3.04074919 0,3.61531759 0,4.40596906 L0,11.1824756 L1.8318285,11.1824756 L1.8318285,5.11798046 C1.8318285,4.14808632 1.86784363,3.49558632 1.93916772,3.16048046 C2.05851198,2.67588762 2.30355612,2.29260586 2.67359395,2.01134365 C3.04363178,1.73574919 3.5082976,1.59830619 4.05770492,1.59830619 C4.60075662,1.59830619 5.11979823,1.73574919 5.59717528,2.02338762 C6.08090794,2.31031759 6.42058008,2.69359935 6.61760404,3.1845684 C6.82027743,3.67553746 6.9156116,4.38754886 6.9156116,5.32201954 L6.9156116,11.1824756 L8.7474401,11.1824756 L8.7474401,0.245130293 L7.11263556,0.245130293 Z" id="path4271" fill="#D73F3F" fill-rule="nonzero"></path>
                            </g>
                            <g id="g4273" stroke-width="1" fill="none" fill-rule="evenodd" transform="translate(149.6161, 52.0148)">
                                <path d="M0,0 L0,10.9373453 L1.63480454,10.9373453 L1.63480454,9.40421824 C1.96953342,9.93698697 2.42290038,10.3684446 2.98360656,10.6971743 C3.54431274,11.0209446 4.18269861,11.1824756 4.90441362,11.1824756 C5.69815889,11.1824756 6.35490542,11.0145684 6.8682976,10.6794625 C7.38098361,10.3443567 7.73901639,9.87109935 7.9480454,9.26677524 C8.80110971,10.5476873 9.9112232,11.1824756 11.2769735,11.1824756 C12.3510719,11.1824756 13.1744767,10.8827932 13.7471879,10.2841368 C14.3262547,9.68548046 14.6129634,8.75809446 14.6129634,7.50693811 L14.6129634,0 L12.79314,0 L12.79314,6.89057003 C12.79314,7.63233713 12.7331148,8.16510586 12.6137705,8.49454397 C12.4944262,8.81760586 12.2797478,9.08115635 11.9697352,9.27881922 C11.6590164,9.47577362 11.2953342,9.57779316 10.8716267,9.57779316 C10.1138966,9.57779316 9.48751576,9.32061889 8.98612863,8.81193811 C8.48474149,8.29688111 8.23404792,7.48285016 8.23404792,6.3578013 L8.23404792,0 L6.40857503,0 L6.40857503,7.10594463 C6.40857503,7.93201954 6.25957125,8.54838762 5.9608575,8.96142508 C5.66284994,9.37446254 5.17346784,9.57779316 4.49906683,9.57779316 C3.98002522,9.57779316 3.5082976,9.44035016 3.06693569,9.1647557 C2.63192938,8.88916124 2.31485498,8.48816775 2.1185372,7.96177524 C1.92151324,7.43467427 1.82547289,6.66881922 1.82547289,5.67483713 L1.82547289,0 L0,0 Z" id="path4275" fill="#D73F3F" fill-rule="nonzero"></path>
                            </g>
                            <g id="g4277" stroke-width="1" fill="none" fill-rule="evenodd" transform="translate(166.3413, 51.7693)">
                                <path d="M7.5059773,5.05846906 C7.5059773,4.23806189 7.40428752,3.62169381 7.20796974,3.2029886 C6.95092055,2.6581759 6.5512232,2.23309446 6.00252207,1.92207655 C5.45382093,1.61035016 4.8274401,1.44881922 4.12267339,1.44881922 C3.41296343,1.44881922 2.86991173,1.61672638 2.4998739,1.94545603 C2.12983607,2.27489414 1.95117276,2.6879316 1.95117276,3.17890065 C1.95117276,3.50196254 2.03450189,3.79526873 2.20186633,4.06519544 C2.36852459,4.32803746 2.61356873,4.52570033 2.92358134,4.66314332 C3.23359395,4.80129479 3.76464061,4.92669381 4.51672131,5.03438111 C5.84716267,5.22637622 6.8379319,5.45946254 7.5059773,5.735057 L7.5059773,5.05846906 Z M9.46915511,1.56217427 C9.39147541,2.01771987 9.34981084,3.10734528 9.34981084,4.83105049 L9.34981084,7.30289902 C9.34981084,8.12330619 9.32015132,8.69220684 9.2601261,9.00960098 C9.15278689,9.51828176 8.96211854,9.93698697 8.69377049,10.2720928 C8.41906683,10.6079072 7.99535939,10.8827932 7.42264817,11.0981678 C6.84993695,11.3199186 6.09785624,11.4276059 5.17911728,11.4276059 C4.24837327,11.4276059 3.43697352,11.3022068 2.73291299,11.0450326 C2.02885246,10.7871498 1.48580076,10.4222883 1.11576293,9.94336319 C0.745725095,9.46443811 0.477377049,8.84169381 0.315662043,8.06379479 L2.10017654,7.81795603 C2.2972005,8.5901873 2.60156368,9.135 3.00691047,9.44035016 C3.41861286,9.74570033 4.05134931,9.8951873 4.91641866,9.8951873 C5.83515763,9.8951873 6.52721311,9.68548046 6.99258512,9.26677524 C7.33931904,8.96142508 7.51233291,8.42865635 7.51233291,7.67413681 C7.51233291,7.60258143 7.51233291,7.44105049 7.5059773,7.18954397 C6.80827238,6.93803746 5.72216898,6.72833062 4.24201765,6.54908795 C3.52030265,6.45911238 2.97725095,6.36984528 2.61921816,6.27349349 C2.12983607,6.13605049 1.69482976,5.93271987 1.30078184,5.66350163 C0.913089533,5.39357492 0.596721311,5.04075733 0.358032787,4.59796417 C0.119344262,4.15446254 0,3.66349349 0,3.13072476 C0,2.21538274 0.315662043,1.46723941 0.954754098,0.880627036 C1.58678436,0.293306189 2.4998739,0 3.68696091,0 C4.40302648,0 5.07742749,0.11973127 5.69815889,0.359193811 C6.32453972,0.598656352 6.98058008,1.01169381 7.65498108,1.59830619 C7.70865069,1.08395765 7.83435057,0.629120521 8.01936948,0.245838762 L9.92887768,0.245838762 C9.70148802,0.664543974 9.5468348,1.10166938 9.46915511,1.56217427" id="path4279" fill="#D73F3F" fill-rule="nonzero"></path>
                            </g>
                            <g id="g4281" stroke-width="1" fill="none" fill-rule="evenodd" transform="translate(178.537, 52.0148)">
                                <path d="M0,0 L0,10.9373453 L1.64680958,10.9373453 L1.64680958,9.38013029 C2.43490542,10.5838192 3.58032787,11.1824756 5.07742749,11.1824756 C5.72852459,11.1824756 6.3252459,11.0684121 6.8682976,10.8289495 C7.41699874,10.5958632 7.82234552,10.2841368 8.09139975,9.8951873 C8.36539723,9.51190554 8.55677175,9.0570684 8.66411097,8.5306759 C8.72978562,8.18352606 8.76580076,7.58486971 8.76580076,6.72903909 L8.76580076,0 L6.93326608,0 L6.93326608,6.65677524 C6.93326608,7.41058632 6.86194199,7.97381922 6.72423707,8.35072476 C6.5815889,8.72196254 6.33089533,9.02093648 5.96721311,9.2426873 C5.60282472,9.46443811 5.17911728,9.57779316 4.69044136,9.57779316 C3.91435057,9.57779316 3.23994956,9.32699511 2.67359395,8.82964984 C2.11218159,8.32663681 1.82547289,7.37516287 1.82547289,5.97451954 L1.82547289,0 L0,0 Z" id="path4283" fill="#D73F3F" fill-rule="nonzero"></path>
                            </g>
                            <polygon id="path4285" fill="#D73F3F" fill-rule="nonzero" points="190.12459 67.1118567 191.950769 67.1118567 191.950769 64.9807818 190.12459 64.9807818"></polygon>
                            <polygon id="path4287" fill="#D73F3F" fill-rule="nonzero" points="190.12459 62.9517264 191.950769 62.9517264 191.950769 52.0143811 190.12459 52.0143811"></polygon>
                            <g id="g4289" stroke-width="1" fill="none" fill-rule="evenodd" transform="translate(193.7404, 51.8716)">
                                <path d="M4.99409836,1.80163681 L5.26244641,0.167198697 C4.74411097,0.0538436482 4.2843884,0 3.87833544,0 C3.21593947,0 2.70325347,0.107687296 2.33321564,0.316685668 C1.96882724,0.532060261 1.71248424,0.814030945 1.56348045,1.16118078 C1.41447667,1.50833062 1.34244641,2.23238599 1.34244641,3.34609935 L1.34244641,9.63730456 L0,9.63730456 L0,11.080456 L1.34244641,11.080456 L1.34244641,13.793184 L3.15662043,14.8976873 L3.15662043,11.080456 L4.99409836,11.080456 L4.99409836,9.63730456 L3.15662043,9.63730456 L3.15662043,3.2440798 C3.15662043,2.71697883 3.19263556,2.37620521 3.2519546,2.22671824 C3.31762926,2.07085505 3.42496847,1.95112378 3.56832282,1.86114821 C3.71732661,1.77754886 3.92,1.72937296 4.19470366,1.72937296 C4.39737705,1.72937296 4.66643127,1.75346091 4.99409836,1.80163681" id="path4291" fill="#D73F3F" fill-rule="nonzero"></path>
                            </g>
                            <g id="g4293" stroke-width="1" fill="none" fill-rule="evenodd" transform="translate(199.8923, 51.7693)">
                                <path d="M7.5059773,5.05846906 C7.5059773,4.23806189 7.41064313,3.62169381 7.21361917,3.2029886 C6.95727617,2.6581759 6.5512232,2.23309446 6.00252207,1.92207655 C5.45382093,1.61035016 4.8274401,1.44881922 4.12267339,1.44881922 C3.41296343,1.44881922 2.87556116,1.61672638 2.50552333,1.94545603 C2.13619168,2.27489414 1.95117276,2.6879316 1.95117276,3.17890065 C1.95117276,3.50196254 2.03450189,3.79526873 2.20751576,4.06519544 C2.3748802,4.32803746 2.61356873,4.52570033 2.92358134,4.66314332 C3.23994956,4.80129479 3.77099622,4.92669381 4.52237074,5.03438111 C5.84716267,5.22637622 6.84428752,5.45946254 7.5059773,5.735057 L7.5059773,5.05846906 Z M9.46915511,1.56217427 C9.39147541,2.01771987 9.35546028,3.10734528 9.35546028,4.83105049 L9.35546028,7.30289902 C9.35546028,8.12330619 9.32580076,8.69220684 9.26648172,9.00960098 C9.15278689,9.51828176 8.96776797,9.93698697 8.69377049,10.2720928 C8.42542245,10.6079072 8.00171501,10.8827932 7.42264817,11.0981678 C6.84993695,11.3199186 6.10421185,11.4276059 5.17911728,11.4276059 C4.25472888,11.4276059 3.43697352,11.3022068 2.73291299,11.0450326 C2.02885246,10.7871498 1.49145019,10.4222883 1.12141236,9.94336319 C0.745725095,9.46443811 0.477377049,8.84169381 0.316368222,8.06379479 L2.10653216,7.81795603 C2.30284994,8.5901873 2.60156368,9.135 3.01326608,9.44035016 C3.42496847,9.74570033 4.05699874,9.8951873 4.91641866,9.8951873 C5.83515763,9.8951873 6.53356873,9.68548046 6.99894073,9.26677524 C7.34496847,8.96142508 7.51798235,8.42865635 7.51798235,7.67413681 C7.51798235,7.60258143 7.51233291,7.44105049 7.5059773,7.18954397 C6.80827238,6.93803746 5.72216898,6.72833062 4.24837327,6.54908795 C3.52030265,6.45911238 2.98360656,6.36984528 2.61921816,6.27349349 C2.13619168,6.13605049 1.69482976,5.93271987 1.30643127,5.66350163 C0.918738966,5.39357492 0.602370744,5.04075733 0.363682219,4.59796417 C0.119344262,4.15446254 0,3.66349349 0,3.13072476 C0,2.21538274 0.322017654,1.46723941 0.954754098,0.880627036 C1.59313997,0.293306189 2.50552333,0 3.68766709,0 C4.40302648,0 5.07813367,0.11973127 5.70380832,0.359193811 C6.33089533,0.598656352 6.98128625,1.01169381 7.6613367,1.59830619 C7.71500631,1.08395765 7.83435057,0.629120521 8.02501892,0.245838762 L9.93452711,0.245838762 C9.70148802,0.664543974 9.5468348,1.10166938 9.46915511,1.56217427" id="path4295" fill="#D73F3F" fill-rule="nonzero"></path>
                            </g>
                            <g id="g4297" stroke-width="1" fill="none" fill-rule="evenodd" transform="translate(212.0705, 52.0148)">
                                <path d="M4.23538711e-15,0 L4.23538711e-15,10.9373453 L1.64680958,10.9373453 L1.64680958,9.27881922 C2.06416141,10.0567182 2.4525599,10.5661075 2.80988651,10.8169055 C3.16226986,11.0627443 3.55631778,11.1824756 3.98002522,11.1824756 C4.59440101,11.1824756 5.22148802,10.9848127 5.85916772,10.589487 L5.23278689,8.86578176 C4.78506936,9.135 4.33805801,9.26677524 3.89034048,9.26677524 C3.48993695,9.26677524 3.13261034,9.14704397 2.80988651,8.90120521 C2.49422446,8.66245114 2.26754098,8.32096906 2.13054224,7.89021987 C1.92716267,7.23134365 1.82547289,6.50728827 1.82547289,5.72868078 L1.82547289,0 L4.23538711e-15,0 Z" id="path4299" fill="#D73F3F" fill-rule="nonzero"></path>
                            </g>
                            <polygon id="path4301" fill="#D73F3F" fill-rule="nonzero" points="219.045448 67.1118567 220.877276 67.1118567 220.877276 64.9807818 219.045448 64.9807818"></polygon>
                            <polygon id="path4303" fill="#D73F3F" fill-rule="nonzero" points="219.045448 62.9517264 220.877276 62.9517264 220.877276 52.0143811 219.045448 52.0143811"></polygon>
                            <g id="g4305" stroke-width="1" fill="none" fill-rule="evenodd" transform="translate(223.0493, 51.7693)">
                                <path d="M7.5059773,5.05846906 C7.5059773,4.23806189 7.40428752,3.62169381 7.20796974,3.2029886 C6.95162673,2.6581759 6.5512232,2.23309446 6.00252207,1.92207655 C5.45382093,1.61035016 4.82673392,1.44881922 4.12337957,1.44881922 C3.41296343,1.44881922 2.87061791,1.61672638 2.4998739,1.94545603 C2.13619168,2.27489414 1.95117276,2.6879316 1.95117276,3.17890065 C1.95117276,3.50196254 2.03450189,3.79526873 2.20186633,4.06519544 C2.37417402,4.32803746 2.61286255,4.52570033 2.92358134,4.66314332 C3.23359395,4.80129479 3.76464061,4.92669381 4.51742749,5.03438111 C5.84716267,5.22637622 6.84428752,5.45946254 7.5059773,5.735057 L7.5059773,5.05846906 Z M9.46915511,1.56217427 C9.39147541,2.01771987 9.34981084,3.10734528 9.34981084,4.83105049 L9.34981084,7.30289902 C9.34981084,8.12330619 9.32015132,8.69220684 9.2601261,9.00960098 C9.15278689,9.51828176 8.96211854,9.93698697 8.69377049,10.2720928 C8.41906683,10.6079072 8.00100883,10.8827932 7.42264817,11.0981678 C6.84993695,11.3199186 6.09785624,11.4276059 5.17911728,11.4276059 C4.24837327,11.4276059 3.43626734,11.3022068 2.73291299,11.0450326 C2.02885246,10.7871498 1.49145019,10.4222883 1.11576293,9.94336319 C0.745725095,9.46443811 0.477377049,8.84169381 0.315662043,8.06379479 L2.10017654,7.81795603 C2.2972005,8.5901873 2.60156368,9.135 3.01326608,9.44035016 C3.41931904,9.74570033 4.05699874,9.8951873 4.91641866,9.8951873 C5.83586381,9.8951873 6.52721311,9.68548046 6.99894073,9.26677524 C7.33931904,8.96142508 7.51233291,8.42865635 7.51233291,7.67413681 C7.51233291,7.60258143 7.51233291,7.44105049 7.5059773,7.18954397 C6.80827238,6.93803746 5.72216898,6.72833062 4.24272383,6.54908795 C3.52030265,6.45911238 2.97725095,6.36984528 2.61921816,6.27349349 C2.13054224,6.13605049 1.69482976,5.93271987 1.30713745,5.66350163 C0.913089533,5.39357492 0.603076923,5.04075733 0.358032787,4.59796417 C0.119344262,4.15446254 0,3.66349349 0,3.13072476 C0,2.21538274 0.315662043,1.46723941 0.954754098,0.880627036 C1.59313997,0.293306189 2.4998739,0 3.68766709,0 C4.40302648,0 5.07813367,0.11973127 5.70380832,0.359193811 C6.33089533,0.598656352 6.98128625,1.01169381 7.65568726,1.59830619 C7.70865069,1.08395765 7.83435057,0.629120521 8.02501892,0.245838762 L9.92887768,0.245838762 C9.70148802,0.664543974 9.5468348,1.10166938 9.46915511,1.56217427" id="path4307" fill="#D73F3F" fill-rule="nonzero"></path>
                            </g>
                            <g id="g4309" stroke-width="1" fill="none" fill-rule="evenodd" transform="translate(235.2455, 52.0148)">
                                <path d="M0,0 L0,10.9373453 L1.64680958,10.9373453 L1.64680958,9.38013029 C2.44055485,10.5838192 3.57962169,11.1824756 5.07742749,11.1824756 C5.72781841,11.1824756 6.32453972,11.0684121 6.86759142,10.8289495 C7.41629256,10.5958632 7.82234552,10.2841368 8.09704918,9.8951873 C8.36539723,9.51190554 8.55606557,9.0570684 8.66411097,8.5306759 C8.72907945,8.18352606 8.76509458,7.58486971 8.76509458,6.72903909 L8.76509458,0 L6.93891551,0 L6.93891551,6.65677524 C6.93891551,7.41058632 6.86759142,7.97381922 6.72423707,8.35072476 C6.58088272,8.72196254 6.33089533,9.02093648 5.96650694,9.2426873 C5.60282472,9.46443811 5.17911728,9.57779316 4.68973518,9.57779316 C3.91435057,9.57779316 3.23994956,9.32699511 2.67924338,8.82964984 C2.11218159,8.32663681 1.82547289,7.37516287 1.82547289,5.97451954 L1.82547289,0 L0,0 Z" id="path4311" fill="#D73F3F" fill-rule="nonzero"></path>
                            </g>
                            <g id="g4313" stroke-width="1" fill="none" fill-rule="evenodd" transform="translate(123.1409, 25.8774)">
                                <path d="M10.7699369,3.29863192 C9.80953342,2.23876221 8.59208071,1.71236971 7.10627995,1.71236971 C5.65013871,1.71236971 4.44469105,2.23309446 3.47863808,3.2809202 C2.51187894,4.32803746 2.02885246,5.75914495 2.02885246,7.57849349 C2.02885246,9.85338762 2.53588903,11.4757818 3.53795712,12.4456759 C4.54638083,13.4148616 5.74547289,13.9058306 7.13593947,13.9058306 C8.12035309,13.9058306 9.0037831,13.6486564 9.79752837,13.1456433 C10.584918,12.6426303 11.1816393,11.9306189 11.5933417,11.0145684 C11.9986885,10.0992264 12.2077175,9.0273127 12.2077175,7.79386808 C12.2077175,5.85478827 11.724691,4.35212541 10.7699369,3.29863192 M13.3715006,11.8406433 C12.7924338,13.0322883 11.9513745,13.9596743 10.8469105,14.6242182 C9.74315259,15.2887622 8.50239596,15.6238681 7.13029004,15.6238681 C5.03011349,15.6238681 3.31692308,14.9118567 1.99283733,13.4984609 C0.662395965,12.0801059 0,10.1169381 0,7.61462541 C0,6.28553746 0.286002522,5.02871336 0.853064313,3.84344463 C1.4201261,2.65179967 2.25482976,1.71803746 3.35929382,1.02940554 C4.4630517,0.347149837 5.71581337,0 7.11828499,0 C8.41271122,0 9.61815889,0.311726384 10.7339218,0.934470684 C11.8496847,1.55650651 12.7147541,2.46688925 13.3234805,3.67553746 C13.9322068,4.88489414 14.23657,6.25578176 14.23657,7.78820033 C14.23657,9.29653094 13.9498613,10.6497068 13.3715006,11.8406433" id="path4315" fill="#D73F3F" fill-rule="nonzero"></path>
                            </g>
                            <g id="g4317" stroke-width="1" fill="none" fill-rule="evenodd" transform="translate(139.675, 21.9446)">
                                <path d="M6.62254729,6.51295603 C6.04418663,5.81865635 5.35213115,5.47150651 4.54002522,5.47150651 C3.74063052,5.47150651 3.06058008,5.80661238 2.4998739,6.4768241 C1.93281211,7.15341205 1.65245902,8.18919381 1.65245902,9.59621336 C1.65245902,11.0025244 1.95046658,12.0801059 2.55354351,12.8162052 C3.15026482,13.553013 3.8423203,13.9235423 4.61770492,13.9235423 C5.40509458,13.9235423 6.07949559,13.5763925 6.64655738,12.8820928 C7.21291299,12.1877932 7.49397226,11.1463436 7.49397226,9.75136808 C7.49397226,8.29121336 7.20161412,7.21363192 6.62254729,6.51295603 M8.82441362,12.6192508 C8.46638083,13.4984609 7.93533417,14.1750489 7.23127364,14.6539739 C6.52721311,15.132899 5.71581337,15.3723616 4.79071879,15.3723616 C4.08665826,15.3723616 3.48993695,15.2349186 2.99490542,14.9593241 C2.4998739,14.6780619 2.05851198,14.2650244 1.66446406,13.7081678 L1.66446406,15.1272313 L0,15.1272313 L0,0 L1.82547289,0 L1.82547289,5.32201954 C2.1354855,4.92669381 2.53518285,4.5972557 3.01891551,4.33441368 C3.50194199,4.07653094 4.05064313,3.9447557 4.65936948,3.9447557 C5.49477932,3.9447557 6.28852459,4.18421824 7.0406053,4.65747557 C7.79833544,5.13640065 8.37104666,5.8243241 8.77074401,6.72266287 C9.16479193,7.61462541 9.36110971,8.62631922 9.36110971,9.7393241 C9.36110971,10.7871498 9.18244641,11.745 8.82441362,12.6192508" id="path4319" fill="#D73F3F" fill-rule="nonzero"></path>
                            </g>
                            <g id="g4321" stroke-width="1" fill="none" fill-rule="evenodd" transform="translate(150.6418, 25.8896)">
                                <path d="M1.99283733,6.76446254 C2.05215637,7.7223127 2.36852459,8.4825 2.94123581,9.05140065 C3.51394704,9.61959283 4.21800757,9.90723127 5.05977301,9.90723127 C5.98416141,9.90723127 6.74259773,9.54803746 7.32095839,8.83531759 C7.70300126,8.3748127 7.92968474,7.68618078 8.01301387,6.76446254 L1.99283733,6.76446254 Z M9.94017654,5.73434853 C9.94017654,7.54236156 9.48680958,8.94300489 8.57372005,9.93698697 C7.65498108,10.9302606 6.47989912,11.4276059 5.03576293,11.4276059 C3.54996217,11.4276059 2.33886507,10.9245928 1.40176545,9.90723127 C0.465372005,8.88986971 0,7.46442997 0,5.62099349 C0,3.84273616 0.459016393,2.46051303 1.38411097,1.47857492 C2.30920555,0.490969055 3.56196721,0 5.13745271,0 C6.39021438,0 7.42194199,0.311726384 8.22839849,0.928094463 C9.03344262,1.54446254 9.58284994,2.41233713 9.8808575,3.53171824 L7.99535939,3.77118078 C7.71500631,2.98690554 7.33861286,2.41871336 6.86759142,2.05881107 C6.39021438,1.70032573 5.81750315,1.52604235 5.14945776,1.52604235 C4.24837327,1.52604235 3.49629256,1.84343648 2.89321564,2.48389251 C2.29084489,3.11868078 1.95682219,4.04039902 1.89114754,5.24408795 L9.93452711,5.24408795 C9.94017654,5.45946254 9.94017654,5.62736971 9.94017654,5.73434853" id="path4323" fill="#D73F3F" fill-rule="nonzero"></path>
                            </g>
                            <g id="g4325" stroke-width="1" fill="none" fill-rule="evenodd" transform="translate(162.8255, 26.1349)">
                                <path d="M0,0 L0,10.9366368 L1.64680958,10.9366368 L1.64680958,9.38013029 C2.44055485,10.5831107 3.5859773,11.1824756 5.07742749,11.1824756 C5.72781841,11.1824756 6.33089533,11.0684121 6.87394704,10.8289495 C7.41699874,10.5958632 7.82870113,10.2841368 8.09704918,9.8951873 C8.36539723,9.51190554 8.55677175,9.0570684 8.66411097,8.5306759 C8.73543506,8.18281759 8.76509458,7.58486971 8.76509458,6.72833062 L8.76509458,0 L6.93962169,0 L6.93962169,6.65677524 C6.93962169,7.41058632 6.8682976,7.97381922 6.72423707,8.35072476 C6.5815889,8.72196254 6.33089533,9.02093648 5.96721311,9.2426873 C5.60847415,9.46372964 5.18547289,9.57779316 4.69609079,9.57779316 C3.91435057,9.57779316 3.24630517,9.32628664 2.67924338,8.82964984 C2.11218159,8.32663681 1.8318285,7.37516287 1.8318285,5.97451954 L1.8318285,0 L0,0 Z" id="path4327" fill="#D73F3F" fill-rule="nonzero"></path>
                            </g>
                            <g id="g4329" stroke-width="1" fill="none" fill-rule="evenodd" transform="translate(173.9717, 25.8773)">
                                <path d="M0,5.10664495 L1.85513241,5.27384365 C1.94481715,4.52003257 2.14819672,3.89728827 2.47021438,3.41269544 C2.79223203,2.93377036 3.29361917,2.53844463 3.96802018,2.23947068 C4.64807062,1.93978827 5.40580076,1.79596906 6.25321564,1.79596906 C7.00459016,1.79596906 7.66698613,1.90365635 8.24605296,2.13107492 C8.81876419,2.35920195 9.24812106,2.67021987 9.52918033,3.0655456 C9.80953342,3.46016287 9.95218159,3.89162052 9.95218159,4.35850163 C9.95218159,4.83105049 9.81518285,5.24408795 9.5468348,5.59761401 C9.27213115,5.9504316 8.8251198,6.25011401 8.2043884,6.48957655 C7.80469105,6.64473127 6.92126103,6.89057003 5.55480454,7.2256759 C4.18269861,7.56078176 3.22794451,7.87179967 2.6785372,8.16510586 C1.96882724,8.54271987 1.43778058,9.01526873 1.09175284,9.57212541 C0.739369483,10.1346498 0.567061791,10.7573941 0.567061791,11.4516938 C0.567061791,12.2118811 0.781740227,12.924601 1.20544767,13.589145 C1.63480454,14.2536889 2.25553594,14.7559935 3.07258512,15.0974756 C3.89598991,15.4446254 4.80343001,15.6125326 5.80549811,15.6125326 C6.90925599,15.6125326 7.88237074,15.4325814 8.72343001,15.0733876 C9.57084489,14.7141938 10.2148802,14.1814251 10.6682472,13.4814577 C11.1223203,12.7807818 11.3666583,11.9908388 11.4019672,11.104544 L9.51081967,10.9607248 C9.40983607,11.9129072 9.06945776,12.6312948 8.48474149,13.1215554 C7.89366961,13.6068567 7.03495586,13.851987 5.88882724,13.851987 C4.69538462,13.851987 3.83031526,13.6309446 3.28161412,13.1881515 C2.73856242,12.7446498 2.46456494,12.2118811 2.46456494,11.5891368 C2.46456494,11.0450326 2.66088272,10.5958632 3.0429256,10.2487134 C3.42496847,9.8951873 4.41503153,9.53599349 6.01452711,9.17113192 C7.61331652,8.80627036 8.7170744,8.4825 9.30814628,8.20690554 C10.1795712,7.80662052 10.8179571,7.29156352 11.2296595,6.66881922 C11.6413619,6.04678339 11.8496847,5.33406352 11.8496847,4.52003257 C11.8496847,3.7180456 11.6230013,2.96352606 11.1696343,2.25151466 C10.7162673,1.53879479 10.0658764,0.988314332 9.21281211,0.592988599 C8.36539723,0.197662866 7.41064313,0 6.3421942,0 C5.00045397,0 3.86633039,0.197662866 2.95959647,0.599364821 C2.04650694,0.993982085 1.33044136,1.59830619 0.817755359,2.39462541 C0.298007566,3.19732085 0.0240100883,4.10132736 0,5.10664495" id="path4331" fill="#D73F3F" fill-rule="nonzero"></path>
                            </g>
                            <g id="g4333" stroke-width="1" fill="none" fill-rule="evenodd" transform="translate(187.2955, 25.9917)">
                                <path d="M4.99409836,1.80163681 L5.25679697,0.167198697 C4.74340479,0.0538436482 4.2843884,0 3.87833544,0 C3.21593947,0 2.69689786,0.106978827 2.33250946,0.316685668 C1.96882724,0.532060261 1.71248424,0.813322476 1.56348045,1.16118078 C1.41377049,1.50833062 1.33679697,2.23238599 1.33679697,3.34609935 L1.33679697,9.63730456 L0,9.63730456 L0,11.0797476 L1.33679697,11.0797476 L1.33679697,13.7917671 L3.15591425,14.8991042 L3.15591425,11.0797476 L4.99409836,11.0797476 L4.99409836,9.63730456 L3.15591425,9.63730456 L3.15591425,3.2440798 C3.15591425,2.71697883 3.18627995,2.37620521 3.2519546,2.22671824 C3.31762926,2.07085505 3.42496847,1.95112378 3.56761665,1.86114821 C3.71167718,1.77754886 3.92,1.72937296 4.19470366,1.72937296 C4.39737705,1.72937296 4.66007566,1.75346091 4.99409836,1.80163681" id="path4335" fill="#D73F3F" fill-rule="nonzero"></path>
                            </g>
                            <g id="g4337" stroke-width="1" fill="none" fill-rule="evenodd" transform="translate(194.0499, 26.1349)">
                                <path d="M0,0 L0,10.9366368 L1.64116015,10.9366368 L1.64116015,9.27881922 C2.06416141,10.0567182 2.4525599,10.565399 2.80423707,10.8169055 C3.16226986,11.0627443 3.54996217,11.1824756 3.98002522,11.1824756 C4.59440101,11.1824756 5.22078184,10.9848127 5.85916772,10.589487 L5.22643127,8.86578176 C4.77941992,9.135 4.3317024,9.26677524 3.88398487,9.26677524 C3.48499369,9.26677524 3.12625473,9.14704397 2.80988651,8.90120521 C2.49422446,8.66245114 2.26754098,8.32096906 2.13054224,7.8895114 C1.92716267,7.23134365 1.82547289,6.50728827 1.82547289,5.72868078 L1.82547289,0 L0,0 Z" id="path4339" fill="#D73F3F" fill-rule="nonzero"></path>
                            </g>
                            <g id="g4341" stroke-width="1" fill="none" fill-rule="evenodd" transform="translate(200.4047, 25.8896)">
                                <path d="M1.99283733,6.76446254 C2.05215637,7.7223127 2.36852459,8.4825 2.94123581,9.05140065 C3.51394704,9.61959283 4.21800757,9.90723127 5.05977301,9.90723127 C5.98416141,9.90723127 6.74259773,9.54803746 7.32095839,8.83531759 C7.70229508,8.3748127 7.92968474,7.68618078 8.01301387,6.76446254 L1.99283733,6.76446254 Z M9.94017654,5.73434853 C9.94017654,7.54236156 9.48680958,8.94300489 8.56807062,9.93698697 C7.65498108,10.9302606 6.47989912,11.4276059 5.03576293,11.4276059 C3.54996217,11.4276059 2.33250946,10.9245928 1.40247163,9.90723127 C0.465372005,8.88986971 0,7.46442997 0,5.62099349 C0,3.84273616 0.459016393,2.46051303 1.38411097,1.47857492 C2.30920555,0.490969055 3.56196721,0 5.13745271,0 C6.39021438,0 7.42264817,0.311726384 8.22839849,0.928094463 C9.03344262,1.54446254 9.58284994,2.41233713 9.8808575,3.53171824 L7.98970996,3.77118078 C7.71500631,2.98690554 7.33861286,2.41871336 6.86759142,2.05881107 C6.39021438,1.70032573 5.81750315,1.52604235 5.14945776,1.52604235 C4.24837327,1.52604235 3.49629256,1.84343648 2.89392182,2.48389251 C2.29084489,3.11868078 1.95682219,4.04039902 1.89114754,5.24408795 L9.93452711,5.24408795 C9.94017654,5.45946254 9.94017654,5.62736971 9.94017654,5.73434853" id="path4343" fill="#D73F3F" fill-rule="nonzero"></path>
                            </g>
                            <g id="g4345" stroke-width="1" fill="none" fill-rule="evenodd" transform="translate(211.9804, 25.8896)">
                                <path d="M1.99213115,6.76446254 C2.05215637,7.7223127 2.36852459,8.4825 2.94123581,9.05140065 C3.51394704,9.61959283 4.21800757,9.90723127 5.05977301,9.90723127 C5.98416141,9.90723127 6.74259773,9.54803746 7.32095839,8.83531759 C7.70300126,8.3748127 7.93533417,7.68618078 8.01301387,6.76446254 L1.99213115,6.76446254 Z M9.94653216,5.73434853 C9.94653216,7.54236156 9.48680958,8.94300489 8.57372005,9.93698697 C7.66063052,10.9302606 6.47919294,11.4276059 5.04141236,11.4276059 C3.54996217,11.4276059 2.33815889,10.9245928 1.40176545,9.90723127 C0.471021438,8.88986971 -1.54569629e-16,7.46442997 -1.54569629e-16,5.62099349 C-1.54569629e-16,3.84273616 0.465372005,2.46051303 1.3897604,1.47857492 C2.31485498,0.490969055 3.56196721,0 5.14310214,0 C6.39021438,0 7.42194199,0.311726384 8.22769231,0.928094463 C9.03344262,1.54446254 9.58214376,2.41233713 9.8808575,3.53171824 L7.99535939,3.77118078 C7.71500631,2.98690554 7.33861286,2.41871336 6.86688525,2.05881107 C6.39021438,1.70032573 5.82315259,1.52604235 5.14945776,1.52604235 C4.24766709,1.52604235 3.49629256,1.84343648 2.89321564,2.48389251 C2.29084489,3.11868078 1.95682219,4.04039902 1.89044136,5.24408795 L9.93452711,5.24408795 C9.94017654,5.45946254 9.94653216,5.62736971 9.94653216,5.73434853" id="path4347" fill="#D73F3F" fill-rule="nonzero"></path>
                            </g>
                            <g id="g4349" stroke-width="1" fill="none" fill-rule="evenodd" transform="translate(223.1618, 25.9917)">
                                <path d="M4.99974779,1.80163681 L5.26244641,0.167198697 C4.7497604,0.0538436482 4.28368222,0 3.87833544,0 C3.21593947,0 2.70254729,0.106978827 2.33815889,0.316685668 C1.96882724,0.532060261 1.71248424,0.813322476 1.56348045,1.16118078 C1.41377049,1.50833062 1.34244641,2.23238599 1.34244641,3.34609935 L1.34244641,9.63730456 L0,9.63730456 L0,11.0797476 L1.34244641,11.0797476 L1.34244641,13.7917671 L3.16156368,14.8991042 L3.16156368,11.0797476 L4.99974779,11.0797476 L4.99974779,9.63730456 L3.16156368,9.63730456 L3.16156368,3.2440798 C3.16156368,2.71697883 3.19192938,2.37620521 3.25760404,2.22671824 C3.32327869,2.07085505 3.42496847,1.95112378 3.56832282,1.86114821 C3.71732661,1.77754886 3.92564943,1.72937296 4.19399748,1.72937296 C4.39737705,1.72937296 4.66572509,1.75346091 4.99974779,1.80163681" id="path4351" fill="#D73F3F" fill-rule="nonzero"></path>
                            </g>
                            <g id="g4353" stroke-width="1" fill="none" fill-rule="evenodd" transform="translate(230.107, 26.1349)">
                                <path d="M1.06601605e-15,0 L1.06601605e-15,15.0974756 L2.9652459,15.0974756 L6.49190416,4.40596906 C6.81392182,3.41198697 7.05261034,2.67021987 7.20161412,2.17287459 C7.37462799,2.72406352 7.63732661,3.53171824 7.99535939,4.59158795 L11.5573266,15.0974756 L14.2125599,15.0974756 L14.2125599,0 L12.3094073,0 L12.3094073,12.6369625 L7.98406053,0 L6.20519546,0 L1.90315259,12.8523371 L1.90315259,0 L1.06601605e-15,0 Z" id="path4355" fill="#D73F3F" fill-rule="nonzero"></path>
                            </g>
                            <g id="g4357" stroke-width="1" fill="none" fill-rule="evenodd" transform="translate(246.665, 25.8894)">
                                <path d="M7.5059773,5.05846906 C7.5059773,4.23806189 7.40428752,3.62169381 7.20796974,3.2029886 C6.95162673,2.6581759 6.5512232,2.23309446 6.00252207,1.92136808 C5.45382093,1.61035016 4.82673392,1.44881922 4.12267339,1.44881922 C3.41296343,1.44881922 2.86991173,1.61672638 2.4998739,1.94545603 C2.13054224,2.27489414 1.95117276,2.6879316 1.95117276,3.17890065 C1.95117276,3.50196254 2.03450189,3.79526873 2.20116015,4.06448697 C2.36923077,4.32803746 2.61286255,4.52570033 2.92358134,4.66314332 C3.23359395,4.80129479 3.76464061,4.92669381 4.51672131,5.03438111 C5.84716267,5.22566775 6.8379319,5.45946254 7.5059773,5.735057 L7.5059773,5.05846906 Z M9.46915511,1.56217427 C9.39147541,2.01771987 9.34981084,3.10734528 9.34981084,4.83105049 L9.34981084,7.30289902 C9.34981084,8.12330619 9.31944515,8.69220684 9.2601261,9.00960098 C9.15278689,9.51828176 8.96211854,9.93698697 8.69377049,10.2720928 C8.41906683,10.6079072 7.99535939,10.8827932 7.42264817,11.0981678 C6.84428752,11.3199186 6.09785624,11.4276059 5.17911728,11.4276059 C4.24837327,11.4276059 3.43626734,11.3022068 2.73220681,11.0443241 C2.02814628,10.7871498 1.48580076,10.4222883 1.11576293,9.94336319 C0.745725095,9.46443811 0.477377049,8.84169381 0.310718789,8.06379479 L2.10017654,7.81795603 C2.2972005,8.5901873 2.60156368,9.135 3.00691047,9.44035016 C3.41861286,9.74570033 4.05134931,9.8951873 4.91641866,9.8951873 C5.83586381,9.8951873 6.52721311,9.68548046 6.99258512,9.26677524 C7.33931904,8.96142508 7.51233291,8.42865635 7.51233291,7.67413681 C7.51233291,7.60258143 7.51233291,7.44105049 7.5059773,7.18954397 C6.80827238,6.93803746 5.72216898,6.72833062 4.24201765,6.54908795 C3.51959647,6.45911238 2.97725095,6.36984528 2.61921816,6.27349349 C2.13054224,6.13605049 1.69482976,5.9320114 1.30078184,5.66350163 C0.913089533,5.39357492 0.596721311,5.04075733 0.358032787,4.5972557 C0.119344262,4.15446254 0,3.66349349 0,3.13072476 C0,2.21467427 0.315662043,1.46653094 0.954754098,0.879918567 C1.58678436,0.293306189 2.4998739,0 3.68766709,0 C4.40302648,0 5.07177806,0.11973127 5.69815889,0.359193811 C6.32453972,0.598656352 6.98128625,1.01169381 7.65498108,1.59830619 C7.70865069,1.08395765 7.83435057,0.629120521 8.01936948,0.245838762 L9.92887768,0.245838762 C9.70148802,0.664543974 9.5468348,1.10166938 9.46915511,1.56217427" id="path4359" fill="#D73F3F" fill-rule="nonzero"></path>
                            </g>
                            <g id="g4361" stroke-width="1" fill="none" fill-rule="evenodd" transform="translate(258.861, 21.9446)">
                                <path d="M6.62325347,6.51295603 C6.04418663,5.81865635 5.35213115,5.47150651 4.5407314,5.47150651 C3.7413367,5.47150651 3.06058008,5.80661238 2.4998739,6.4768241 C1.93281211,7.15341205 1.65245902,8.18919381 1.65245902,9.59621336 C1.65245902,11.0025244 1.95752837,12.0801059 2.55354351,12.8162052 C3.15026482,13.553013 3.8423203,13.9235423 4.6184111,13.9235423 C5.40580076,13.9235423 6.07949559,13.5763925 6.64655738,12.8820928 C7.21361917,12.1877932 7.49397226,11.1463436 7.49397226,9.75136808 C7.49397226,8.29121336 7.20161412,7.21363192 6.62325347,6.51295603 M8.82441362,12.6192508 C8.46638083,13.4984609 7.93533417,14.1750489 7.23127364,14.6539739 C6.52721311,15.132899 5.71651955,15.3723616 4.79071879,15.3723616 C4.08736444,15.3723616 3.48993695,15.2349186 2.99490542,14.9593241 C2.4998739,14.6780619 2.05851198,14.2650244 1.66517024,13.7081678 L1.66517024,15.1272313 L0,15.1272313 L0,0 L1.82547289,0 L1.82547289,5.32201954 C2.13619168,4.92669381 2.53588903,4.5972557 3.01891551,4.33441368 C3.50264817,4.07653094 4.05134931,3.9447557 4.66007566,3.9447557 C5.49477932,3.9447557 6.28852459,4.18421824 7.0406053,4.65747557 C7.79833544,5.13640065 8.37175284,5.8243241 8.77074401,6.72266287 C9.16479193,7.61462541 9.36181589,8.62631922 9.36181589,9.7393241 C9.36181589,10.7871498 9.18244641,11.745 8.82441362,12.6192508" id="path4363" fill="#D73F3F" fill-rule="nonzero"></path>
                            </g>
                            <g id="g4365" stroke-width="1" fill="none" fill-rule="evenodd" transform="translate(123.1408, 0.2458)">
                                <polygon id="path4367" fill="#D73F3F" fill-rule="nonzero" points="4.90441362 0 4.90441362 13.3192182 2.63172178e-14 13.3192182 2.63172178e-14 15.0974756 11.8023707 15.0974756 11.8023707 13.3192182 6.87394704 13.3192182 6.87394704 0"></polygon>
                            </g>
                            <g id="g4369" stroke-width="1" fill="none" fill-rule="evenodd" transform="translate(136.1303, 0)">
                                <path d="M1.99283733,6.76446254 C2.05215637,7.7223127 2.36923077,8.4825 2.94194199,9.05140065 C3.51465322,9.6203013 4.21871375,9.90723127 5.05977301,9.90723127 C5.98486759,9.90723127 6.74259773,9.54803746 7.32095839,8.83602606 C7.70300126,8.3748127 7.92968474,7.68618078 8.01301387,6.76446254 L1.99283733,6.76446254 Z M9.94088272,5.735057 C9.94088272,7.54307003 9.48751576,8.94371336 8.57442623,9.93769544 C7.65568726,10.9309691 6.47989912,11.4276059 5.0364691,11.4276059 C3.55066835,11.4276059 2.33321564,10.9253013 1.40247163,9.90723127 C0.465372005,8.88986971 0,7.46513844 0,5.62099349 C0,3.84344463 0.459722573,2.46051303 1.38411097,1.47928339 C2.30920555,0.490969055 3.56196721,0 5.13745271,0 C6.39092055,0 7.42264817,0.311726384 8.22839849,0.928094463 C9.0341488,1.54446254 9.58284994,2.41233713 9.8808575,3.53242671 L7.99535939,3.77118078 C7.71500631,2.98690554 7.33931904,2.41871336 6.86759142,2.05951954 C6.39092055,1.70032573 5.81750315,1.52675081 5.14945776,1.52675081 C4.24837327,1.52675081 3.49629256,1.84414495 2.89392182,2.48460098 C2.29155107,3.11868078 1.95752837,4.04110749 1.89114754,5.24408795 L9.93452711,5.24408795 C9.94088272,5.45946254 9.94088272,5.62736971 9.94088272,5.735057" id="path4371" fill="#D73F3F" fill-rule="nonzero"></path>
                            </g>
                            <g id="g4373" stroke-width="1" fill="none" fill-rule="evenodd" transform="translate(147.6997, 0.0002)">
                                <path d="M7.50032787,5.05846906 C7.50032787,4.23806189 7.40499369,3.62169381 7.20796974,3.20228013 C6.95162673,2.6581759 6.54557377,2.23309446 6.00252207,1.92136808 C5.45382093,1.61035016 4.8274401,1.44881922 4.12337957,1.44881922 C3.41296343,1.44881922 2.86991173,1.61672638 2.4998739,1.94545603 C2.13054224,2.27489414 1.94552333,2.6879316 1.94552333,3.17890065 C1.94552333,3.50196254 2.03520807,3.79526873 2.20186633,4.06448697 C2.36923077,4.32803746 2.61356873,4.52570033 2.92428752,4.66314332 C3.23430013,4.80129479 3.76534678,4.92669381 4.51672131,5.03438111 C5.84151324,5.22566775 6.83863808,5.45946254 7.50032787,5.735057 L7.50032787,5.05846906 Z M9.46986129,1.56217427 C9.39218159,2.01771987 9.35051702,3.10663681 9.35051702,4.83105049 L9.35051702,7.30289902 C9.35051702,8.12330619 9.32015132,8.69149837 9.26083228,9.00960098 C9.15349306,9.51757329 8.96211854,9.93698697 8.69377049,10.2720928 C8.41906683,10.6079072 7.99606557,10.8827932 7.42264817,11.0981678 C6.84428752,11.3199186 6.09856242,11.4276059 5.17911728,11.4276059 C4.24907945,11.4276059 3.43132409,11.3022068 2.72726356,11.0443241 C2.02320303,10.7871498 1.48580076,10.4215798 1.11576293,9.94336319 C0.740075662,9.46443811 0.477377049,8.84169381 0.310718789,8.06308632 L2.10088272,7.81795603 C2.2972005,8.5901873 2.60156368,9.135 3.00761665,9.44035016 C3.41931904,9.74570033 4.05205549,9.8951873 4.91076923,9.8951873 C5.83586381,9.8951873 6.52791929,9.68548046 6.9932913,9.26677524 C7.33931904,8.96142508 7.51233291,8.42865635 7.51233291,7.67413681 C7.51233291,7.60258143 7.51233291,7.44105049 7.50032787,7.18954397 C6.80827238,6.93803746 5.71651955,6.72833062 4.24272383,6.54908795 C3.52030265,6.45911238 2.97795712,6.36913681 2.61921816,6.27349349 C2.13054224,6.13605049 1.69482976,5.9320114 1.30078184,5.66279316 C0.913089533,5.39357492 0.596721311,5.04075733 0.358032787,4.5972557 C0.119344262,4.15446254 0,3.66349349 0,3.13072476 C0,2.21467427 0.316368222,1.46653094 0.954754098,0.879918567 C1.58749054,0.293306189 2.4998739,0 3.68201765,0 C4.40373266,0 5.07248424,0.11973127 5.69815889,0.359193811 C6.32453972,0.598656352 6.98128625,1.01169381 7.65568726,1.59830619 C7.70935687,1.08395765 7.82870113,0.628412052 8.01936948,0.245838762 L9.92887768,0.245838762 C9.7021942,0.664543974 9.5468348,1.10166938 9.46986129,1.56217427" id="path4375" fill="#D73F3F" fill-rule="nonzero"></path>
                            </g>
                            <g id="g4377" stroke-width="1" fill="none" fill-rule="evenodd" transform="translate(159.896, 0.2458)">
                                <path d="M0,0 L0,10.9366368 L1.63480454,10.9366368 L1.63480454,9.40421824 C1.97518285,9.93698697 2.4221942,10.3677362 2.98360656,10.6971743 C3.54431274,11.0202362 4.18905422,11.1817671 4.90441362,11.1817671 C5.7045145,11.1817671 6.36055485,11.0145684 6.86759142,10.6794625 C7.38098361,10.3443567 7.73901639,9.87109935 7.94733922,9.26677524 C8.80110971,10.5476873 9.91687264,11.1817671 11.2833291,11.1817671 C12.3510719,11.1817671 13.1744767,10.8827932 13.7471879,10.2841368 C14.3262547,9.68548046 14.6122573,8.75738599 14.6122573,7.50693811 L14.6122573,0 L12.7924338,0 L12.7924338,6.88986156 C12.7924338,7.63233713 12.7331148,8.16510586 12.6201261,8.49454397 C12.5000757,8.81760586 12.2853972,9.08115635 11.969029,9.27881922 C11.6590164,9.47577362 11.2953342,9.57779316 10.8772762,9.57779316 C10.119546,9.57779316 9.48751576,9.32061889 8.98612863,8.81193811 C8.48474149,8.29688111 8.23404792,7.48285016 8.23404792,6.35709283 L8.23404792,0 L6.40857503,0 L6.40857503,7.10523616 C6.40857503,7.93131107 6.25886507,8.54838762 5.9608575,8.96142508 C5.66284994,9.37446254 5.17346784,9.57779316 4.49906683,9.57779316 C3.98567465,9.57779316 3.5082976,9.44035016 3.0732913,9.1647557 C2.6312232,8.88916124 2.31485498,8.48816775 2.12418663,7.96177524 C1.92716267,7.43467427 1.82547289,6.66881922 1.82547289,5.67483713 L1.82547289,0 L0,0 Z" id="path4379" fill="#D73F3F" fill-rule="nonzero"></path>
                            </g>
                            <g id="g4381" stroke-width="1" fill="none" fill-rule="evenodd" transform="translate(51.1107, 25.1882)">
                                <path d="M2.79505675,4.10061889 C2.79505675,3.52179967 3.11424968,3.09034202 3.50406053,2.81687296 C3.89387137,2.53986156 4.35430013,2.39462541 4.88464061,2.39462541 C5.41427491,2.39462541 5.87682219,2.53986156 6.26592686,2.81687296 C6.65432535,3.09034202 6.87535939,3.52179967 6.87535939,4.10061889 L6.87535939,12.9777362 C6.87535939,13.5586808 6.65432535,13.98943 6.26592686,14.2636075 C5.87682219,14.5384935 5.41427491,14.7234039 4.88464061,14.7234039 C4.35430013,14.7234039 3.89387137,14.5384935 3.50406053,14.2636075 C3.11424968,13.98943 2.79505675,13.5586808 2.79505675,12.9777362 L2.79505675,4.10061889 Z M0,12.9826954 C0,13.657158 0.142648172,14.2586482 0.426532156,14.7786645 C0.709709962,15.2993893 1.0861034,15.7244707 1.55147541,16.0638274 C2.01543506,16.4017671 2.53730139,16.6582329 3.11848676,16.8303909 C3.69684741,17.0018404 4.28015132,17.0889821 4.86839849,17.0889821 C5.45523329,17.0889821 6.03924338,17.0018404 6.62042875,16.8303909 C7.19808323,16.6582329 7.72065574,16.4017671 8.18390921,16.0638274 C8.65139975,15.7244707 9.02496847,15.2993893 9.31026482,14.7786645 C9.59626734,14.2586482 9.73750315,13.657158 9.73750315,12.9826954 L9.73750315,4.10486971 C9.73750315,3.41552932 9.59626734,2.81191368 9.31026482,2.30039902 C9.02496847,1.78675896 8.65139975,1.36380293 8.18390921,1.02515472 C7.72065574,0.685798046 7.19808323,0.427915309 6.62042875,0.257882736 C6.03924338,0.0857247557 5.45523329,0 4.86839849,0 C4.28015132,0 3.69684741,0.0857247557 3.11848676,0.257882736 C2.53730139,0.427915309 2.01543506,0.685798046 1.55147541,1.02515472 C1.0861034,1.36380293 0.709709962,1.78675896 0.426532156,2.30039902 C0.142648172,2.81191368 0,3.41552932 0,4.10486971 L0,12.9826954 Z" id="path4383" fill="#D73F3F" fill-rule="nonzero"></path>
                            </g>
                            <g id="g4385" stroke-width="1" fill="none" fill-rule="evenodd" transform="translate(39.1797, 25.1734)">
                                <polygon id="path4387" fill="#D73F3F" fill-rule="nonzero" points="6.89018916 17.1159039 6.89018916 9.90581433 2.4356116 9.90581433 2.4356116 17.1159039 0 17.1159039 0 0 2.4356116 0 2.4356116 7.21221498 6.89018916 7.21221498 6.89018916 0 9.51223203 0 9.51223203 17.1159039"></polygon>
                            </g>
                            <g id="g4389" stroke-width="1" fill="none" fill-rule="evenodd" transform="translate(62.7002, 25.1734)">
                                <polygon id="path4391" fill="#D73F3F" fill-rule="nonzero" points="9.6682976 17.1159039 0 17.1159039 0 14.5987134 3.57326608 14.5987134 3.53160151 0 6.10209332 0 6.10209332 14.5987134 9.6682976 14.5987134"></polygon>
                            </g>
                            <g id="g4393" stroke-width="1" fill="none" fill-rule="evenodd" transform="translate(0, 0.2351)">
                                <path d="M54.9901639,11.2164821 C41.8481715,11.2164821 31.1947541,21.165513 31.1947541,33.4369055 C31.1947541,45.7118404 41.8481715,55.6601629 54.9901639,55.6601629 C68.1314502,55.6601629 78.7855738,45.7118404 78.7855738,33.4369055 C78.7855738,21.165513 68.1314502,11.2164821 54.9901639,11.2164821 M90.3012358,26.7971336 L109.979622,26.7971336 L98.2132661,40.1701954 L86.4991677,53.5432573 L74.7850694,66.876645 L15.9271627,66.876645 L27.641261,53.5432573 L7.91979823,53.5432573 L19.635309,40.1701954 L19.7264061,40.0802199 L0,40.0802199 L11.7621185,26.707158 L23.4825725,13.3340961 L35.1966709,0 L94.0545776,0 L82.3341236,13.3340961 L82.2479697,13.4630375 L101.972257,13.4630375 L90.3012358,26.7971336 Z" id="path4395" fill="#D73F3F" fill-rule="nonzero"></path>
                            </g>
                        </g>
                    </g>
                </g>
            </g>
        </g>
    </g>
</svg>