<?xml version="1.0" encoding="UTF-8"?>
<svg width="119px" height="118px" viewBox="0 0 119 118" version="1.1" xmlns="http://www.w3.org/2000/svg" xmlns:xlink="http://www.w3.org/1999/xlink">
    <title>chatmap</title>
    <g id="Symbols" stroke="none" stroke-width="1" fill="none" fill-rule="evenodd">
        <path d="M103.27,0 C107.22,0 110.92,1.54 113.71,4.33 C116.49,7.12 118.02,10.82 118.010049,14.76 L117.98,56.11 L117.98,61.9 L117.96,80.57 C117.96,83.73 116.91,86.86 115.02,89.38 C114.61,89.94 114.15,90.48 113.64,90.98 L90.95,113.68 C88.15,116.46 84.45,117.99 80.52,117.99 L14.75,117.99 L14.75,118 C6.62,118 -2.06057393e-13,111.39 -2.06057393e-13,103.26 L-2.06057393e-13,34.34 C-2.06057393e-13,30.4 1.53,26.7 4.32,23.91 L23.92,4.32 C26.68,1.54 30.39,0 34.34,0 L103.27,0 Z M58.06,27.19 L58.05,27.18 C42.03,27.98 29.09,41.14 28.55,57.18 C28.34,63.37 29.95,69.17 32.87,74.09 L27.35,88.86 C26.91,90.04 28.06,91.2 29.25,90.76 L44.1,85.2 C49.01,88.04 54.77,89.59 60.91,89.35 C76.88,88.72 89.94,75.79 90.73,59.83 C91.63,41.4 76.5,26.27 58.06,27.19 Z" id="chatmap" fill="#000000"></path>
    </g>
</svg>