<?xml version="1.0" encoding="UTF-8"?>
<svg width="119px" height="118px" viewBox="0 0 119 118" version="1.1" xmlns="http://www.w3.org/2000/svg" xmlns:xlink="http://www.w3.org/1999/xlink">
    <title>export-tool</title>
    <g id="Symbols" stroke="none" stroke-width="1" fill="none" fill-rule="evenodd">
        <path d="M103.27,0 C107.22,0 110.92,1.54 113.71,4.33 C116.49,7.12 118.02,10.82 118.010049,14.76 L117.98,56.11 L117.98,61.9 L117.96,80.57 C117.96,83.73 116.91,86.86 115.02,89.38 C114.61,89.94 114.15,90.48 113.64,90.98 L90.95,113.68 C88.15,116.46 84.45,117.99 80.52,117.99 L14.75,117.99 L14.75,118 C6.62,118 -2.06057393e-13,111.39 -2.06057393e-13,103.26 L-2.06057393e-13,34.34 C-2.06057393e-13,30.4 1.53,26.7 4.32,23.91 L23.92,4.32 C26.68,1.54 30.39,0 34.34,0 L103.27,0 Z M78.97,26.31 L49.92,26.31 C49.74,26.31 49.57,26.33 49.41,26.38 C48.55,26.61 47.92,27.39 47.92,28.31 L47.92,32.31 C47.92,33.41 48.82,34.31 49.92,34.31 L75.85,34.31 L29.11,81.05 C28.34,81.83 28.34,83.09 29.11,83.87 L31.87,86.66 C32.65,87.44 33.93,87.44 34.71,86.66 L81.46,39.9 L81.46,65.83 C81.46,66.93 82.36,67.83 83.46,67.83 L87.46,67.83 C88.46,67.83 89.27,67.11 89.43,66.16 C89.45,66.05 89.46,65.94 89.46,65.83 L89.46,36.79 L89.45,36.8 C89.45,36.53 89.44,36.26 89.42,36 C89.04,30.98 85.15,26.96 80.19,26.38 C79.79,26.33 79.38,26.31 78.97,26.31 Z" id="export-tool" fill="#000000"></path>
    </g>
</svg>