<?xml version="1.0" encoding="UTF-8"?>
<svg width="119px" height="119px" viewBox="0 0 119 119" version="1.1" xmlns="http://www.w3.org/2000/svg" xmlns:xlink="http://www.w3.org/1999/xlink">
    <title>fair</title>
    <g id="Symbols" stroke="none" stroke-width="1" fill="none" fill-rule="evenodd">
        <path d="M103.27,0.64 C107.22,0.64 110.92,2.18 113.71,4.97 C116.49,7.76 118.02,11.46 118.010097,15.4 L117.98,56.75 L117.98,62.54 L117.96,81.21 C117.96,84.37 116.91,87.5 115.02,90.02 C114.61,90.58 114.15,91.12 113.64,91.62 L90.95,114.32 C88.15,117.1 84.45,118.63 80.52,118.63 L14.75,118.63 L14.75,118.64 C6.62,118.64 3.55271368e-13,112.03 3.55271368e-13,103.9 L3.55271368e-13,34.98 C3.55271368e-13,31.04 1.53,27.34 4.32,24.55 L23.92,4.96 C26.68,2.18 30.39,0.64 34.34,0.64 L70,0.64 L103.27,0.64 Z M68,26.64 C50.326888,26.64 36,40.966888 36,58.64 C36,76.313112 50.326888,90.64 68,90.64 C85.673112,90.64 100,76.313112 100,58.64 C100,40.966888 85.673112,26.64 68,26.64 Z M23.1465959,73.7978947 C21.1864122,73.7978947 20.2063203,73.7978947 19.4576292,74.1793719 C18.2849433,74.7768852 17.5465959,75.9817586 17.5465959,77.2978947 C17.5465959,78.6140309 18.2849433,79.8189043 19.4576292,80.4164176 C20.2063203,80.7978947 21.1864122,80.7978947 23.1465959,80.7978947 L34.185597,80.7978947 C35.0109375,80.7978947 35.6625222,80.7978947 36.196238,80.7694188 L36.2351793,80.7665799 C34.8677282,78.6357777 33.7072686,76.2979859 32.7906858,73.7981766 Z M80.4918932,46.5585855 C81.3462637,45.7042151 82.737044,45.7042151 83.5914145,46.5585856 L85.2767221,48.2438932 C86.1310926,49.0982637 86.1310926,50.489044 85.2765575,51.3435791 L63.1409529,73.468876 C61.7200469,74.889782 59.3727542,74.7640342 58.1150729,73.199241 L50.2763604,63.4897507 C49.5152756,62.5479083 49.6622468,61.1634392 50.6058997,60.4085333 L52.4614031,58.9086681 C53.4032455,58.1475833 54.7877146,58.2945545 55.543022,59.2387043 L61.0188222,66.021749 Z M30.1873969,56.2189678 L29.969968,56.2189474 L13.3984363,56.2189474 C11.4382525,56.2189474 10.4581606,56.2189474 9.70946955,56.6004245 C8.53678369,57.1979378 7.7984363,58.4028112 7.7984363,59.7189474 C7.7984363,61.0350835 8.53678369,62.2399569 9.70946955,62.8374702 C10.4581606,63.2189474 11.4382525,63.2189474 13.3984363,63.2189474 L29.969968,63.2189474 C30.1651206,63.2189474 30.3505587,63.2189474 30.5253509,63.2190848 C30.4495661,62.2051044 30.410841,61.1780661 30.410841,60.14 C30.410841,58.8135978 30.4740666,57.5052003 30.5981722,56.2194983 C30.4005718,56.2189474 30.1915308,56.2189474 29.969968,56.2189474 Z M36.7498897,38.7140263 C36.1267762,38.64 35.3204402,38.64 34.185597,38.64 L23.1465959,38.64 C21.1864122,38.64 20.2063203,38.64 19.4576292,39.0214772 C18.2849433,39.6189905 17.5465959,40.8238639 17.5465959,42.14 C17.5465959,43.4561361 18.2849433,44.6610095 19.4576292,45.2585228 C20.2063203,45.64 21.1864122,45.64 23.1465959,45.64 L33.1106285,45.6408314 C34.0948516,43.1452255 35.3252477,40.8212233 36.7634295,38.7156281 Z" id="fair" fill="#000000"></path>
    </g>
</svg>