<?xml version="1.0" encoding="UTF-8"?>
<svg width="119px" height="118px" viewBox="0 0 119 118" version="1.1" xmlns="http://www.w3.org/2000/svg" xmlns:xlink="http://www.w3.org/1999/xlink">
    <title>field-tasking-manager</title>
    <g id="Symbols" stroke="none" stroke-width="1" fill="none" fill-rule="evenodd">
        <path d="M0.419,62.829 L16.14,62.83 L44.407,117.989 L15.17,117.99 L15.17,118 C7.04,118 0.42,111.39 0.42,103.26 L0.419,62.829 Z M103.69,0 C107.64,0 111.34,1.54 114.13,4.33 C116.91,7.12 118.44,10.82 118.430049,14.76 L118.4,56.11 L118.4,56.419 L83.781,56.42 L80.074,62.839 L118.398,62.838 L118.38,80.57 C118.38,83.73 117.33,86.86 115.44,89.38 C115.03,89.94 114.57,90.48 114.06,90.98 L91.37,113.68 C88.57,116.46 84.87,117.99 80.94,117.99 L51.607,117.989 L40.3,95.92 L109.05,95.92 L114.4,90.57 C114.73,90.24 115.04,89.88 115.31,89.51 L37.01,89.51 L23.35,62.84 L41.165,62.839 L37.458,56.42 L0.419,56.419 L0.42,34.34 C0.42,30.4 1.95,26.7 4.74,23.91 L24.34,4.32 C27.1,1.54 30.81,0 34.76,0 L103.69,0 Z M71.19,16.61 C64.66,12.84 56.61,12.84 50.08,16.61 C43.55,20.38 39.53,27.35 39.53,34.89 L39.53,41.94 C39.53,45.32 40.34,48.64 41.89,51.64 L58.39,83.51 C59.33,85.33 61.94,85.33 62.88,83.51 L79.38,51.64 C80.93,48.64 81.74,45.31 81.74,41.94 L81.74,34.89 C81.74,27.35 77.72,20.38 71.19,16.61 Z" id="field-tasking-manager" fill="#000000"></path>
    </g>
</svg>