<?xml version="1.0" encoding="UTF-8"?>
<svg width="119px" height="118px" viewBox="0 0 119 118" version="1.1" xmlns="http://www.w3.org/2000/svg" xmlns:xlink="http://www.w3.org/1999/xlink">
    <title>openaerialmap</title>
    <g id="Symbols" stroke="none" stroke-width="1" fill="none" fill-rule="evenodd">
        <path d="M103.27,0 C107.22,0 110.92,1.54 113.71,4.33 C116.49,7.12 118.02,10.82 118.010049,14.76 L117.98,56.11 L117.98,61.9 L117.96,80.57 C117.96,83.73 116.91,86.86 115.02,89.38 C114.61,89.94 114.15,90.48 113.64,90.98 L90.95,113.68 C88.15,116.46 84.45,117.99 80.52,117.99 L14.75,117.99 L14.75,118 C6.62,118 -2.06057393e-13,111.39 -2.06057393e-13,103.26 L-2.06057393e-13,34.34 C-2.06057393e-13,30.4 1.53,26.7 4.32,23.91 L23.92,4.32 C26.68,1.54 30.39,0 34.34,0 L103.27,0 Z M55.8601406,29.1317021 L29.3095437,82.2308712 C28.7674678,83.3186253 28.948163,84.6277441 29.7668087,85.5311379 C30.5848409,86.4336728 31.8755161,86.7396845 33.0075864,86.3046111 L53.8279745,78.2954628 C54.882635,77.8898418 55.6090593,76.9200764 55.7086535,75.7954124 L58.5001243,43.4053912 L61.291595,75.7925804 C61.3874698,76.9172444 62.1176136,77.8870948 63.1722741,78.2926309 L83.9926622,86.3017791 C84.3356062,86.4345224 84.6933053,86.4972124 85.0510044,86.4972124 C85.865959,86.4972124 86.6661303,86.157963 87.2340535,85.5311379 C88.0526992,84.6277157 88.2333943,83.3186253 87.6876273,82.2308712 L61.1370304,29.1317021 C60.0492348,26.9560993 56.9479363,26.9560993 55.8601406,29.1317021 Z" id="openaerialmap" fill="#000000"></path>
    </g>
</svg>