<?xml version="1.0" encoding="UTF-8"?>
<svg width="119px" height="118px" viewBox="0 0 119 118" version="1.1" xmlns="http://www.w3.org/2000/svg" xmlns:xlink="http://www.w3.org/1999/xlink">
    <title>portal</title>
    <g id="Symbols" stroke="none" stroke-width="1" fill="none" fill-rule="evenodd">
        <path d="M103.27,0 C107.22,0 110.92,1.54 113.71,4.33 C116.49,7.12 118.02,10.82 118.010049,14.76 L117.98,56.11 L117.98,61.9 L117.96,80.57 C117.96,83.73 116.91,86.86 115.02,89.38 C114.61,89.94 114.15,90.48 113.64,90.98 L90.95,113.68 C88.15,116.46 84.45,117.99 80.52,117.99 L14.75,117.99 L14.75,118 C6.62,118 -2.06057393e-13,111.39 -2.06057393e-13,103.26 L-2.06057393e-13,34.34 C-2.06057393e-13,30.4 1.53,26.7 4.32,23.91 L23.92,4.32 C26.68,1.54 30.39,0 34.34,0 L103.27,0 Z M77.7035025,10 L71.7450833,10 L38.4339764,22.5230021 C37.5686458,22.8385685 37,23.6773106 37,24.607401 L37,49.9855803 L64.2125866,49.9855803 L51.8589624,37.5373176 C51.339764,37.0141418 51.339764,36.1504865 51.8589624,35.6190063 L53.7626896,33.700695 C54.2077168,33.2605629 54.8752575,33.1858235 55.3944559,33.4847811 C55.4933508,33.5429118 55.5840045,33.6176512 55.6664169,33.700695 L69.4952238,47.6354413 C69.7012549,47.826442 69.874321,48.0340515 70.0473872,48.2499653 C72.1324218,50.8990619 72.0664919,54.6941627 69.8578385,57.293433 C69.7507024,57.4179987 69.6188425,57.5591731 69.4952238,57.6837388 L55.6664169,71.6101808 C55.6087282,71.660007 55.5592808,71.7181377 55.4933508,71.7596596 C54.9659112,72.1333566 54.2406818,72.0918347 53.7626896,71.6101808 L51.8589624,69.6918694 C51.339764,69.1603892 51.339764,68.3050383 51.8589624,67.7735581 L64.2125866,55.3419042 L37,55.3419042 L37,93.4091731 C37,94.3475679 37.5686458,95.1780057 38.4339764,95.5101808 L71.5884997,107.958443 L77.6705376,108 C79.5000937,108.00827 80.9917588,106.521786 80.9917588,104.678214 L80.9917588,13.3217512 C81,11.4864837 79.5248174,10 77.7035025,10 Z" id="portal" fill="#000000"></path>
    </g>
</svg>