<?xml version="1.0" encoding="UTF-8"?>
<svg width="119px" height="119px" viewBox="0 0 119 119" version="1.1" xmlns="http://www.w3.org/2000/svg" xmlns:xlink="http://www.w3.org/1999/xlink">
    <title>tasking-manager</title>
    <g id="Symbols" stroke="none" stroke-width="1" fill="none" fill-rule="evenodd">
        <path d="M103.27,0.64 C107.22,0.64 110.92,2.18 113.71,4.97 C116.49,7.76 118.02,11.46 118.010049,15.4 L117.98,56.75 L117.98,62.54 L117.96,81.21 C117.96,84.37 116.91,87.5 115.02,90.02 C114.61,90.58 114.15,91.12 113.64,91.62 L90.95,114.32 C88.15,117.1 84.45,118.63 80.52,118.63 L14.75,118.63 L14.75,118.64 C6.62,118.64 -2.06057393e-13,112.03 -2.06057393e-13,103.9 L-2.06057393e-13,34.98 C-2.06057393e-13,31.04 1.53,27.34 4.32,24.55 L23.92,4.96 C26.68,2.18 30.39,0.64 34.34,0.64 L103.27,0.64 Z M89.38,31.66 C88.48,30.76 87.01,30.76 86.11,31.66 L46.8,70.95 L34.82,56.11 C34.02,55.11 32.56,54.96 31.57,55.76 L27.97,58.67 C26.97,59.47 26.82,60.93 27.62,61.92 L42.83,80.76 C44.55,82.9 47.76,83.07 49.7,81.13 L92.65,38.2 C93.55,37.3 93.55,35.83 92.65,34.93 Z" id="tasking-manager" fill="#000000"></path>
    </g>
</svg>